<svg xmlns="http://www.w3.org/2000/svg" viewBox="0 0 971.27 180.05"><defs><style>.cls-1{fill:#fff;}</style></defs><g id="Layer_2" data-name="Layer 2"><g id="Layer_1-2" data-name="Layer 1"><path class="cls-1" d="M36.11,115.9v61.74H0V2.41H68.36Q88.1,2.41,103,9.63a53,53,0,0,1,23.11,20.58q8.07,13.24,8.07,30.21,0,25.76-17.7,40.68T67.76,115.9Zm0-29.24H68.36q14.33,0,21.79-6.74t7.58-19.26q0-12.88-7.58-20.82t-21-8.19H36.11ZM224,113.49H195.22v64.15H159.11V2.41h65.11q31,0,47.9,13.84T289,55.36q0,17.94-7.82,30t-23.47,19L295.59,176v1.68H256.84ZM195.22,84.25h29.12q13.6,0,21.06-6.86t7.47-19.14q0-12.39-7.1-19.5t-21.55-7.1h-29ZM460.48,94q0,25.88-9.15,45.37t-26.24,30.09q-17,10.59-39,10.59-21.78,0-38.88-10.47t-26.47-29.85q-9.39-19.5-9.51-44.77V86.29q0-25.87,9.27-45.49t26.35-30.21Q364,0,385.86,0t38.87,10.59q17.1,10.47,26.36,30.21t9.39,45.37Zm-36.59-8q0-27.55-9.87-41.88T385.86,29.85q-18.18,0-28,14.2t-10,41.4V94q0,26.84,9.87,41.64t28.4,14.8q18.16,0,27.92-14.2t9.87-41.64ZM623.2,127.1,646.79,2.41h36L643.9,177.64H607.55L579,60.42,550.51,177.64H514.16L475.28,2.41h36L535,126.85,563.86,2.41h30.57Zm184.62-25.4H738.5v46.94h81.36v29H702.39V2.41H819.62V31.65H738.5V73.42h69.32ZM841,177.64V2.41h61.38q31.91,0,48.39,12.27t16.48,35.75a39.91,39.91,0,0,1-6.61,22.75A38.37,38.37,0,0,1,942.26,87.5q13.49,3.36,21.18,13.6t7.83,25q0,25.27-16.13,38.27t-46,13.24Zm36.11-76.3v47.3h30.93q12.76,0,19.86-6t7.22-16.85q0-24.08-24.91-24.43Zm0-25.52h26.72q27.32-.48,27.32-21.78,0-11.91-7-17.09t-21.79-5.3H877.15Z"/></g></g></svg>